<svg width="170" height="80" viewBox="0 0 170 80" fill="none" xmlns="http://www.w3.org/2000/svg">
<path d="M22.852 9.853C19.913 9.853 17.601 11.005 15.918 13.309C14.234 15.613 13.392 18.793 13.392 22.848C13.392 27.093 14.202 30.304 15.821 32.482C17.44 34.659 19.784 35.748 22.852 35.748C24.179 35.748 25.463 35.602 26.705 35.31C27.947 35.018 29.238 34.643 30.579 34.185V39.038C28.124 40.064 25.342 40.577 22.232 40.577C17.652 40.577 14.134 39.042 11.681 35.973C9.226 32.904 8 28.513 8 22.801C8 19.203 8.595 16.055 9.787 13.357C10.977 10.658 12.7 8.59 14.954 7.154C17.208 5.718 19.855 5 22.894 5C26.09 5 29.043 5.742 31.754 7.225L29.914 11.935C28.858 11.383 27.742 10.898 26.564 10.479C25.388 10.062 24.15 9.853 22.852 9.853Z" fill="#8AAE75"/>
<path d="M55.7671 40.103L52.6421 30.493H40.6791L37.6181 40.103H32.2241L43.9321 5.355H49.4961L61.2041 40.103H55.7671ZM51.2941 25.617L48.3621 16.196C48.1481 15.565 47.8521 14.571 47.4741 13.214C47.0961 11.857 46.8351 10.863 46.6931 10.232C46.3081 12.173 45.7441 14.295 45.0031 16.599L42.1781 25.618H51.2941V25.617Z" fill="#8AAE75"/>
<path d="M64.3701 40.103V5.498H69.4851V40.103H64.3701Z" fill="#8AAE75"/>
<path d="M87.591 40.103H82.475V10.35H73.272V5.498H96.794V10.35H87.591V40.103Z" fill="#8AAE75"/>
<path d="M100.623 40.103V5.498H105.737V35.25H118.986V40.103H100.623Z" fill="#8AAE75"/>
<path d="M123.415 40.103V5.498H128.53V40.103H123.415Z" fill="#8AAE75"/>
<path d="M161.896 40.103H155.625L140.237 12.527H140.066L140.173 14.066C140.372 17.001 140.472 19.684 140.472 22.114V40.103H135.827V5.498H142.034L157.38 32.932H157.509C157.48 32.569 157.423 31.247 157.337 28.967C157.251 26.687 157.208 24.907 157.208 23.63V5.498H161.896V40.103Z" fill="#8AAE75"/>
<path d="M30.8439 74.15H28.7069V57.649H10.9849V74.15H8.86792V40.596H10.9849V55.491H28.7069V40.596H30.8439V74.15Z" fill="#948E88"/>
<path d="M53.0678 62.307H40.7408L36.5078 74.15H34.1628L46.3648 40.458H47.7138L59.6668 74.15H57.2798L53.0678 62.307ZM41.5088 60.196H52.3628L48.2328 48.1C47.8868 47.153 47.4718 45.836 46.9878 44.153C46.6138 45.622 46.2058 46.954 45.7638 48.147L41.5088 60.196Z" fill="#948E88"/>
<path d="M87.161 74.15H85.418L78.757 48.261C78.203 46.135 77.788 44.391 77.512 43.029C77.29 44.36 76.975 45.89 76.568 47.619C76.16 49.348 73.929 58.192 69.876 74.15H68.091L59.749 40.596H61.969L67.281 62.216C67.489 63.088 67.682 63.896 67.862 64.638C68.042 65.38 68.204 66.076 68.35 66.726C68.495 67.376 68.626 68.003 68.744 68.609C68.862 69.213 68.969 69.822 69.066 70.433C69.398 68.352 70.104 65.193 71.183 60.954L76.371 40.596H78.716L84.797 63.96C85.502 66.653 86.007 68.825 86.312 70.478C86.492 69.376 86.723 68.207 87.007 66.967C87.29 65.728 89.424 56.938 93.408 40.596H95.547L87.161 74.15Z" fill="#948E88"/>
<path d="M99.9219 74.15V40.596H102.038V71.947H116.503V74.15H99.9219Z" fill="#948E88"/>
<path d="M137.335 74.15H120.755V40.596H137.335V42.754H122.872V55.445H136.526V57.602H122.872V71.993H137.335V74.15Z" fill="#948E88"/>
<path d="M150.2 58.957L159.081 40.596H161.364L151.258 61.182V74.15H149.079V61.366L138.931 40.596H141.36L150.2 58.957Z" fill="#948E88"/>
</svg>
