<svg width="16" height="16" viewBox="0 0 16 16" xmlns="http://www.w3.org/2000/svg">
<path d="M14.1581 1C13.9409 1.00525 13.7346 1.0963 13.5842 1.25324L7.99893 6.83851L2.41362 1.25324C2.337 1.17441 2.24535 1.11175 2.1441 1.06896C2.04284 1.02617 1.93403 1.00412 1.8241 1.00411C1.66053 1.0042 1.50071 1.05308 1.36507 1.14449C1.22943 1.2359 1.12414 1.36568 1.06265 1.51725C1.00117 1.66882 0.986289 1.83528 1.01992 1.99535C1.05354 2.15542 1.13415 2.30183 1.25142 2.41584L6.83632 8.00111L1.25101 13.5864C1.17248 13.6622 1.10984 13.753 1.06675 13.8533C1.02366 13.9536 1.00098 14.0615 1.00003 14.1706C0.999082 14.2798 1.01989 14.3881 1.06123 14.4891C1.10257 14.5902 1.16362 14.682 1.24082 14.7592C1.31802 14.8364 1.40982 14.8974 1.51087 14.9388C1.61192 14.9801 1.72019 15.0009 1.82936 15C1.93853 14.999 2.04642 14.9763 2.14674 14.9332C2.24705 14.8902 2.33778 14.8275 2.41362 14.749L7.99893 9.16372L13.5842 14.749C13.6601 14.8275 13.7508 14.8902 13.8511 14.9332C13.9514 14.9763 14.0593 14.999 14.1685 15C14.2777 15.0009 14.3859 14.9801 14.487 14.9388C14.588 14.8974 14.6798 14.8364 14.757 14.7592C14.8342 14.682 14.8953 14.5902 14.9366 14.4891C14.978 14.3881 14.9988 14.2798 14.9978 14.1706C14.9969 14.0615 14.9742 13.9536 14.9311 13.8533C14.888 13.753 14.8254 13.6622 14.7469 13.5864L9.16154 8.00111L14.7469 2.41584C14.8665 2.30112 14.9487 2.15291 14.9826 1.99066C15.0165 1.82841 15.0006 1.65969 14.937 1.50664C14.8733 1.35359 14.7649 1.22335 14.6259 1.13301C14.4869 1.04267 14.3239 0.996452 14.1581 1.00041V1Z"/>
</svg>
