<?xml version="1.0" encoding="UTF-8"?>
<svg xmlns="http://www.w3.org/2000/svg" xmlns:xlink="http://www.w3.org/1999/xlink" width="64pt" height="64pt" viewBox="0 0 64 64" version="1.1">
<g id="surface1">
<path style=" stroke:none;fill-rule:nonzero;fill:rgb(0%,0%,0%);fill-opacity:1;" d="M 60.800781 2.558594 L 3.199219 2.558594 C 1.433594 2.558594 0 3.992188 0 5.761719 L 0 45.441406 C 0 47.207031 1.433594 48.640625 3.199219 48.640625 L 17.921875 48.640625 L 17.921875 56.320312 L 12.800781 56.320312 L 12.800781 58.878906 L 51.199219 58.878906 L 51.199219 56.320312 L 46.078125 56.320312 L 46.078125 48.640625 L 60.800781 48.640625 C 62.566406 48.640625 64 47.207031 64 45.441406 L 64 5.761719 C 64 3.992188 62.566406 2.558594 60.800781 2.558594 Z M 43.519531 56.320312 L 20.480469 56.320312 L 20.480469 48.640625 L 43.519531 48.640625 Z M 61.441406 45.441406 C 61.441406 45.792969 61.152344 46.078125 60.800781 46.078125 L 3.199219 46.078125 C 2.847656 46.078125 2.558594 45.792969 2.558594 45.441406 L 2.558594 38.398438 L 61.441406 38.398438 Z M 61.441406 35.839844 L 2.558594 35.839844 L 2.558594 5.761719 C 2.558594 5.40625 2.847656 5.121094 3.199219 5.121094 L 60.800781 5.121094 C 61.152344 5.121094 61.441406 5.40625 61.441406 5.761719 Z M 61.441406 35.839844 "/>
</g>
</svg>
