<svg width="16" height="16" viewBox="0 0 16 16" fill="none" xmlns="http://www.w3.org/2000/svg">
<path d="M14.3002 1.55969H1.69983C1.3136 1.55969 1 1.87329 1 2.26038V10.9403C1 11.3265 1.3136 11.6401 1.69983 11.6401H4.92041V13.3201H3.80017V13.8798H12.1998V13.3201H11.0796V11.6401H14.3002C14.6864 11.6401 15 11.3265 15 10.9403V2.26038C15 1.87329 14.6864 1.55969 14.3002 1.55969ZM10.5199 13.3201H5.4801V11.6401H10.5199V13.3201ZM14.4403 10.9403C14.4403 11.0172 14.3771 11.0796 14.3002 11.0796H1.69983C1.62292 11.0796 1.55969 11.0172 1.55969 10.9403V9.39966H14.4403V10.9403ZM14.4403 8.83997H1.55969V2.26038C1.55969 2.18262 1.62292 2.12024 1.69983 2.12024H14.3002C14.3771 2.12024 14.4403 2.18262 14.4403 2.26038V8.83997Z" fill="currentColor"/>
</svg>
