<svg width="16" height="16" viewBox="0 0 16 16" fill="none" xmlns="http://www.w3.org/2000/svg">
<path d="M2 1L3.09214 13.261L7.99272 14.6274L12.907 13.256L14 1H2ZM11.7311 3.80905L11.3676 7.89359L11.3686 7.91564L11.3671 7.96637V7.96593L11.1088 10.8219L11.0804 11.0756L8 11.9276V11.9277L7.99761 11.9298L4.92256 11.073L4.71434 8.7118H6.22227L6.32925 9.91246L8.00043 10.3654L8 10.3663V10.366L9.67737 9.9067L9.85463 7.95149H6.34815L6.31807 7.62096L6.24953 6.84663L6.21358 6.43085H9.98791L10.1252 4.91021H4.37654L4.34645 4.57991L4.27802 3.80536L4.24196 3.38957H11.7671L11.7311 3.80905V3.80905Z" fill="black"/>
</svg>
