<svg width="16" height="16" viewBox="0 0 16 16" fill="none" xmlns="http://www.w3.org/2000/svg">
<path d="M15.5927 7.29729L8.70309 0.408036C8.30659 0.0112861 7.66309 0.0112861 7.26596 0.408036L5.83559 1.83879L7.65034 3.65354C8.07221 3.51116 8.55571 3.60666 8.89184 3.94279C9.05202 4.10311 9.16385 4.30529 9.21454 4.52619C9.26523 4.74708 9.25273 4.97779 9.17846 5.19191L10.9275 6.94116C11.3506 6.79529 11.839 6.88954 12.1767 7.22804C12.6492 7.70016 12.6492 8.46554 12.1767 8.93791C12.0644 9.05025 11.9311 9.13937 11.7844 9.20017C11.6376 9.26097 11.4804 9.29226 11.3215 9.29226C11.1627 9.29226 11.0054 9.26097 10.8587 9.20017C10.7119 9.13937 10.5786 9.05025 10.4663 8.93791C10.2976 8.76911 10.1826 8.55417 10.1358 8.32016C10.089 8.08614 10.1124 7.84351 10.2032 7.62279L8.57221 5.99166L8.57196 10.2843C8.6903 10.3426 8.79834 10.4197 8.89184 10.5128C9.36421 10.9849 9.36421 11.75 8.89184 12.2232C8.41946 12.6953 7.65384 12.6953 7.18196 12.2232C6.70971 11.7502 6.67096 10.985 7.14309 10.5128C7.25984 10.3962 7.37496 10.308 7.49996 10.249V5.91666C7.37496 5.85766 7.25996 5.77016 7.14296 5.65279C6.78534 5.29529 6.71846 4.77029 6.90196 4.33079L5.12284 2.54166L0.403587 7.26541C0.00671194 7.66254 0.00921193 8.30604 0.406087 8.70291L7.29684 15.5922C7.69346 15.9889 8.33746 15.9889 8.73471 15.5922L15.5922 8.73491C15.9891 8.33791 15.9895 7.69404 15.5927 7.29729V7.29729Z" fill="#F34F29"/>
</svg>
