<svg xmlns="http://www.w3.org/2000/svg" width="64pt" height="64pt" viewBox="0 0 64 64"><path style="stroke:none;fill-rule:nonzero; fill-opacity:1" d="M32.742 64C16.54 64.066 2.722 52.27.25 36.254-2.223 20.238 7.39 4.824 22.86 0a1.282 1.282 0 0 1 1.46 1.945c-6.597 10.817-4.93 24.746 4.032 33.7 8.96 8.957 22.89 10.613 33.703 4.011a1.27 1.27 0 0 1 1.468.078c.422.332.594.895.426 1.407C59.684 54.777 47.031 64.047 32.742 64ZM20.48 3.66A30.188 30.188 0 0 0 2.887 35.434a30.18 30.18 0 0 0 25.68 25.68A30.188 30.188 0 0 0 60.34 43.52a30.023 30.023 0 0 1-33.836-6.024A30.023 30.023 0 0 1 20.48 3.66Zm0 0"/></svg>