<svg width="16" height="16" viewBox="0 0 16 16" xmlns="http://www.w3.org/2000/svg">
<path d="M8.17544 14.9999C4.6395 15.0144 1.62383 12.4366 1.08434 8.93676C0.544631 5.43687 2.64259 2.06853 6.01878 1.01437C6.07447 0.995787 6.13458 0.995215 6.19061 1.01273C6.24664 1.03025 6.29575 1.06496 6.33099 1.11197C6.36622 1.15897 6.38581 1.21588 6.38696 1.27464C6.38811 1.33341 6.37078 1.39104 6.33741 1.4394C4.89767 3.80318 5.26148 6.84701 7.21736 8.80368C9.17281 10.761 12.2129 11.1229 14.5728 9.68018C14.6213 9.6494 14.6783 9.63451 14.7357 9.63757C14.7931 9.64062 14.8481 9.66147 14.8931 9.69722C14.9852 9.76977 15.0228 9.8928 14.9861 10.0047C14.0553 12.9845 11.2939 15.0102 8.17544 14.9999ZM5.49937 1.81417C4.19356 2.39755 3.11276 3.39048 2.42013 4.64304C1.72749 5.8956 1.46064 7.33979 1.65984 8.75757C1.85909 10.1753 2.51368 11.4896 3.52473 12.502C4.53578 13.5143 5.84839 14.1698 7.26428 14.3693C8.68022 14.5687 10.1225 14.3014 11.3734 13.6078C12.6243 12.9143 13.6159 11.8321 14.1985 10.5246C12.981 11.0883 11.6201 11.2644 10.2995 11.029C8.97896 10.7936 7.76236 10.158 6.81405 9.20816C5.86542 8.25863 5.23068 7.04045 4.99557 5.71816C4.76046 4.39587 4.93631 3.03319 5.49937 1.81417V1.81417Z"/>
</svg>
