<svg width="16" height="16" viewBox="0 0 16 16" fill="none" xmlns="http://www.w3.org/2000/svg">
<path d="M4.90835 13.6212L4.87285 13.5504C4.80198 13.4085 4.80198 13.2666 4.83748 13.0892H1.00735L6.68173 3.01749L9.05785 7.30874L9.83798 6.74124L7.46185 2.44999C7.42648 2.37911 7.14273 1.95361 6.68173 1.95361C6.46885 1.95361 6.14973 2.02449 5.90148 2.48549L0.156226 12.6637C0.120726 12.7702 -0.127524 13.2312 0.085226 13.6212C0.227101 13.8341 0.439976 14.0469 0.936476 14.0469H5.7596C5.2631 14.0469 5.01485 13.8341 4.90835 13.6214V13.6212Z" fill="#00C58E"/>
<path d="M15.8312 12.6988L11.2209 4.40016C11.15 4.32929 10.9017 3.86816 10.4406 3.86816C10.2279 3.86816 9.90874 3.97454 9.66049 4.40016L9.05762 5.39316V7.30829L10.4407 4.93216L15.0156 13.0889H13.2779C13.3069 13.2578 13.2821 13.4315 13.2069 13.5854L13.1714 13.6209C12.9586 14.0109 12.4266 14.0464 12.3557 14.0464H15.051C15.1574 14.0464 15.6539 14.011 15.9021 13.6209C16.0085 13.4435 16.0795 13.1244 15.8312 12.6988V12.6988Z" fill="#108775"/>
<path d="M13.3137 13.6213V13.5858L13.3492 13.5149C13.3846 13.373 13.4201 13.2312 13.3846 13.0893L13.2429 12.6638L9.62562 6.35118L9.09362 5.39368H9.05812L8.52612 6.35118L4.90887 12.6637L4.76712 13.0893C4.73276 13.2696 4.75762 13.4562 4.83799 13.6213C4.97987 13.834 5.19262 14.0469 5.68912 14.0469H12.4274C12.5337 14.0469 13.0657 14.0114 13.314 13.6213H13.3137ZM9.05799 7.30868L12.3562 13.0893H5.75987L9.05799 7.30868Z" fill="#2F495E"/>
</svg>
