<?xml version="1.0" encoding="UTF-8"?>
<svg xmlns="http://www.w3.org/2000/svg" xmlns:xlink="http://www.w3.org/1999/xlink" width="64pt" height="64pt" viewBox="0 0 64 64" version="1.1">
<g id="surface1">
<path style=" stroke:none;fill-rule:nonzero;fill:rgb(0%,0%,0%);fill-opacity:1;" d="M 43.34375 20.65625 C 40.464844 17.777344 36.402344 15.914062 32 15.914062 C 27.597656 15.914062 23.535156 17.691406 20.65625 20.65625 C 17.777344 23.535156 15.914062 27.597656 15.914062 32 C 15.914062 36.402344 17.777344 40.464844 20.65625 43.34375 C 23.535156 46.222656 27.597656 48.085938 32 48.085938 C 36.402344 48.085938 40.464844 46.308594 43.34375 43.34375 C 46.222656 40.464844 48.085938 36.402344 48.085938 32 C 48.085938 27.597656 46.308594 23.535156 43.34375 20.65625 Z M 40.296875 40.296875 C 38.179688 42.414062 35.21875 43.683594 32 43.683594 C 28.78125 43.683594 25.820312 42.414062 23.703125 40.296875 C 21.585938 38.179688 20.316406 35.21875 20.316406 32 C 20.316406 28.78125 21.585938 25.820312 23.703125 23.703125 C 25.820312 21.585938 28.78125 20.316406 32 20.316406 C 35.21875 20.316406 38.179688 21.585938 40.296875 23.703125 C 42.414062 25.820312 43.683594 28.78125 43.683594 32 C 43.683594 35.21875 42.414062 38.179688 40.296875 40.296875 Z M 40.296875 40.296875 "/>
<path style=" stroke:none;fill-rule:nonzero;fill:rgb(0%,0%,0%);fill-opacity:1;" d="M 61.800781 29.800781 L 55.28125 29.800781 C 54.09375 29.800781 53.078125 30.816406 53.078125 32 C 53.078125 33.183594 54.09375 34.199219 55.28125 34.199219 L 61.800781 34.199219 C 62.984375 34.199219 64 33.183594 64 32 C 64 30.816406 62.984375 29.800781 61.800781 29.800781 Z M 61.800781 29.800781 "/>
<path style=" stroke:none;fill-rule:nonzero;fill:rgb(0%,0%,0%);fill-opacity:1;" d="M 32 53.078125 C 30.816406 53.078125 29.800781 54.09375 29.800781 55.28125 L 29.800781 61.800781 C 29.800781 62.984375 30.816406 64 32 64 C 33.183594 64 34.199219 62.984375 34.199219 61.800781 L 34.199219 55.28125 C 34.199219 54.09375 33.183594 53.078125 32 53.078125 Z M 32 53.078125 "/>
<path style=" stroke:none;fill-rule:nonzero;fill:rgb(0%,0%,0%);fill-opacity:1;" d="M 54.601562 51.554688 L 49.945312 46.898438 C 49.183594 46.054688 47.746094 46.054688 46.898438 46.898438 C 46.054688 47.746094 46.054688 49.101562 46.898438 49.945312 L 51.554688 54.601562 C 52.402344 55.449219 53.757812 55.449219 54.601562 54.601562 C 55.449219 53.757812 55.449219 52.402344 54.601562 51.554688 Z M 54.601562 51.554688 "/>
<path style=" stroke:none;fill-rule:nonzero;fill:rgb(0%,0%,0%);fill-opacity:1;" d="M 32 0 C 30.816406 0 29.800781 1.015625 29.800781 2.199219 L 29.800781 8.71875 C 29.800781 9.90625 30.816406 10.921875 32 10.921875 C 33.183594 10.921875 34.199219 9.90625 34.199219 8.71875 L 34.199219 2.199219 C 34.199219 1.015625 33.183594 0 32 0 Z M 32 0 "/>
<path style=" stroke:none;fill-rule:nonzero;fill:rgb(0%,0%,0%);fill-opacity:1;" d="M 54.6875 9.398438 C 53.839844 8.550781 52.488281 8.550781 51.640625 9.398438 L 46.984375 14.054688 C 46.136719 14.898438 46.136719 16.253906 46.984375 17.101562 C 47.746094 17.945312 49.183594 17.945312 50.03125 17.101562 L 54.6875 12.445312 C 55.535156 11.597656 55.535156 10.242188 54.6875 9.398438 Z M 54.6875 9.398438 "/>
<path style=" stroke:none;fill-rule:nonzero;fill:rgb(0%,0%,0%);fill-opacity:1;" d="M 8.71875 29.800781 L 2.199219 29.800781 C 1.015625 29.800781 0 30.816406 0 32 C 0 33.183594 0.929688 34.199219 2.199219 34.199219 L 8.71875 34.199219 C 9.90625 34.199219 10.921875 33.183594 10.921875 32 C 10.921875 30.816406 9.90625 29.800781 8.71875 29.800781 Z M 8.71875 29.800781 "/>
<path style=" stroke:none;fill-rule:nonzero;fill:rgb(0%,0%,0%);fill-opacity:1;" d="M 17.015625 46.898438 C 16.253906 46.054688 14.816406 46.054688 13.96875 46.898438 L 9.3125 51.554688 C 8.464844 52.402344 8.464844 53.757812 9.3125 54.601562 C 10.160156 55.449219 11.511719 55.449219 12.359375 54.601562 L 17.015625 49.945312 C 17.863281 49.101562 17.863281 47.746094 17.015625 46.898438 Z M 17.015625 46.898438 "/>
<path style=" stroke:none;fill-rule:nonzero;fill:rgb(0%,0%,0%);fill-opacity:1;" d="M 17.015625 14.054688 L 12.359375 9.398438 C 11.511719 8.550781 10.160156 8.550781 9.3125 9.398438 C 8.464844 10.242188 8.464844 11.597656 9.3125 12.445312 L 13.96875 17.101562 C 14.816406 17.945312 16.167969 17.945312 17.015625 17.101562 C 17.863281 16.253906 17.863281 14.898438 17.015625 14.054688 Z M 17.015625 14.054688 "/>
</g>
</svg>
