<svg width="16" height="16" viewBox="0 0 16 16" xmlns="http://www.w3.org/2000/svg">
<path d="M10.4814 5.51855C9.85168 4.88879 8.96301 4.4812 8 4.4812C7.03699 4.4812 6.14832 4.87 5.51855 5.51855C4.88879 6.14832 4.4812 7.03699 4.4812 8C4.4812 8.96301 4.88879 9.85168 5.51855 10.4814C6.14832 11.1112 7.03699 11.5188 8 11.5188C8.96301 11.5188 9.85168 11.13 10.4814 10.4814C11.1112 9.85168 11.5188 8.96301 11.5188 8C11.5188 7.03699 11.13 6.14832 10.4814 5.51855ZM9.81494 9.81494C9.35181 10.2781 8.7041 10.5558 8 10.5558C7.2959 10.5558 6.64819 10.2781 6.18506 9.81494C5.72192 9.35181 5.44421 8.7041 5.44421 8C5.44421 7.2959 5.72192 6.64819 6.18506 6.18506C6.64819 5.72192 7.2959 5.44421 8 5.44421C8.7041 5.44421 9.35181 5.72192 9.81494 6.18506C10.2781 6.64819 10.5558 7.2959 10.5558 8C10.5558 8.7041 10.2781 9.35181 9.81494 9.81494Z"/>
<path d="M14.5189 7.51892H13.0928C12.833 7.51892 12.6108 7.74109 12.6108 8C12.6108 8.25891 12.833 8.48108 13.0928 8.48108H14.5189C14.7778 8.48108 15 8.25891 15 8C15 7.74109 14.7778 7.51892 14.5189 7.51892Z"/>
<path d="M8 12.6108C7.74109 12.6108 7.51892 12.833 7.51892 13.0928V14.5189C7.51892 14.7778 7.74109 15 8 15C8.25891 15 8.48108 14.7778 8.48108 14.5189V13.0928C8.48108 12.833 8.25891 12.6108 8 12.6108Z"/>
<path d="M12.9441 12.2776L11.9255 11.259C11.7589 11.0745 11.4445 11.0745 11.259 11.259C11.0745 11.4445 11.0745 11.741 11.259 11.9255L12.2776 12.9441C12.463 13.1295 12.7595 13.1295 12.9441 12.9441C13.1295 12.7595 13.1295 12.463 12.9441 12.2776Z"/>
<path d="M8 1C7.74109 1 7.51892 1.22217 7.51892 1.48108V2.90723C7.51892 3.16699 7.74109 3.38916 8 3.38916C8.25891 3.38916 8.48108 3.16699 8.48108 2.90723V1.48108C8.48108 1.22217 8.25891 1 8 1Z"/>
<path d="M12.9629 3.05591C12.7775 2.87048 12.4818 2.87048 12.2964 3.05591L11.2778 4.07446C11.0924 4.25903 11.0924 4.55554 11.2778 4.74097C11.4445 4.92554 11.7589 4.92554 11.9443 4.74097L12.9629 3.72241C13.1483 3.53699 13.1483 3.24048 12.9629 3.05591Z"/>
<path d="M2.90723 7.51892H1.48108C1.22217 7.51892 1 7.74109 1 8C1 8.25891 1.20337 8.48108 1.48108 8.48108H2.90723C3.16699 8.48108 3.38916 8.25891 3.38916 8C3.38916 7.74109 3.16699 7.51892 2.90723 7.51892Z"/>
<path d="M4.72217 11.259C4.55554 11.0745 4.24109 11.0745 4.05566 11.259L3.03711 12.2776C2.85168 12.463 2.85168 12.7595 3.03711 12.9441C3.22253 13.1295 3.51819 13.1295 3.70361 12.9441L4.72217 11.9255C4.90759 11.741 4.90759 11.4445 4.72217 11.259Z"/>
<path d="M4.72217 4.07446L3.70361 3.05591C3.51819 2.87048 3.22253 2.87048 3.03711 3.05591C2.85168 3.24048 2.85168 3.53699 3.03711 3.72241L4.05566 4.74097C4.24109 4.92554 4.53674 4.92554 4.72217 4.74097C4.90759 4.55554 4.90759 4.25903 4.72217 4.07446Z"/>
</svg>
